<?xml version="1.0" encoding="utf-8"?>
<!-- Generator: Adobe Illustrator 27.5.0, SVG Export Plug-In . SVG Version: 6.00 Build 0)  -->
<svg version="1.1" xmlns="http://www.w3.org/2000/svg" xmlns:xlink="http://www.w3.org/1999/xlink" x="0px" y="0px"
	 viewBox="0 0 2000 3600" style="enable-background:new 0 0 2000 3600;" xml:space="preserve">
<g id="Слой_2">
	<g>
		<g>
			<g>
				<rect style="fill:#FFFFFF;" width="2000" height="3600"/>
			</g>
		</g>
		<g>
			<path style="fill:#FFFAF7;" d="M0,86C145,110,577,240,588,537C599,834,262,979,0,974C0,653,0,86,0,86z"/>
			<path style="fill:#FFFAF7;" d="M1541,0c-298,111-418,337-275,627c143,290-448,356-448,815c0,381,409,811,1182,675
				c0-903,0-2117,0-2117H1541z"/>
			<path style="fill:#FFFAF7;" d="M955.218,128.189c-13.723,16.357-16.504,40.051-10.748,60.61
				c5.756,20.56,19.079,38.287,34.492,53.06c22.123,21.205,50.162,37.652,80.702,40.177c30.54,2.525,63.374-11.051,78.392-37.762
				c18.233-32.425,5.21-76.299-23.309-100.183c-25.617-21.455-55.967-25.309-88.005-26.735
				C1000.14,116.17,976.84,102.417,955.218,128.189z"/>
		</g>
		<g>


		</g>
	</g>
</g>
<g id="Layer_1">
	<g>
		<path style="fill:#C9EDF9;" d="M1262.691,2531.75l23.396-22.643c-7.32-40.938-45.727-60.641-71.018-63.325
			c-68.106-7.229-102.82,39.596-117.432,114.695c-26.668,137.075,6.907,712.645,6.907,712.645
			c2.511-15.286,187.483-593.29,182.741-752.094L1262.691,2531.75z"/>
		<path style="fill:#65CEFE;" d="M331.723,2983.726l-2.902,21.474l-6.95-24.838c-19.534-6.153-36.502-8.261-49.949-5.205
			c-120.17,27.313,87.488,192.577,87.488,192.577s-66.182-41.546-130.275-67.854l-0.814,21.769l-8.199-24.598
			c-49.803-19.496-96.008-28.506-105.241-0.357c-8.692,26.5,8.8,51.589,38.9,73.924l34.6,1.214l-20.395,8.553
			c69.513,44.525,184.505,76.375,224.197,83.618c-37.97-5.965-130.795-18.045-185.807-6.171l8.633,14.365l-21.723-10.861
			c-19.255,6.211-31.214,16.494-29.926,32.685c2.462,30.957,136.785,42.105,136.785,42.105l490.696-4.553l2.731,1.365
			C793.571,3332.937,489.913,3041.673,331.723,2983.726z"/>
		<path style="fill:#C9EDF9;" d="M1871.009,3270.12c-9.466-43.944-105.561-56.862-228.052-32.773
			c43.615-14.904,103.537-48.827,134.568-64.331l-21.225-13.506l42.631,1.982c34.866-20.412,52.299-40.465,40.91-58.602
			c-8.507-13.547-27.17-19.182-52.466-19.115l-13.323,23.842l2.766-23.51c-63.808,3.685-78.282-6.731-164.358,28.063
			c53.788-27.924,61.562-36.586,65.093-47.796l-29.133-12.745h34.137c27.595-29.686,71.373-88.41,53.217-115.477
			c-14.984-22.335-80.768,8.667-122.755,24.775l-17.856,40.175l3.615-34.329c-133.497,58.154-88.247,11.496-88.247,11.496
			s139.355-288.28,57.26-281.799c-32.41,2.558-67.263,22.091-101.489,53.388l-0.867,28.655l-10.184-18.184
			c-24.932,24.437-49.618,54.037-73.184,85.808c31.953-67.109,56.188-133.028,58.596-182.106l-24.39-2.957l24.068-16.742
			c-2.266-24.797-12.087-43.55-31.985-53.464c-30.522-15.205-62.557,7.802-94.094,53.521l7.786,41.266l-19.563-23.121
			c-112.929,184.048-216.186,637.165-216.186,637.165l-8.191,24.575l331.768,16.383
			C1409.875,3340.657,1890.127,3358.883,1871.009,3270.12z"/>
		<g>
			<path style="fill:#064C91;" d="M1777.604,3342.837H217.109c-3.156,0-5.714-2.461-5.714-5.497s2.558-5.496,5.714-5.496h1560.496
				c3.155,0,5.714,2.46,5.714,5.496S1780.76,3342.837,1777.604,3342.837z"/>
		</g>
		<path style="fill:#6577FF;" d="M1383.109,3147.611H604.995c-29.72,0-53.813-21.859-53.813-48.823v-29.03
			c0-26.965,24.093-48.823,53.813-48.823h778.115l0,0c-35.594,35.297-36.21,89.241-1.43,125.2L1383.109,3147.611z"/>
		<path style="fill:#EEFBFF;" d="M1372.209,3035.449H980.648c-26.964,0-48.823,21.859-48.823,48.823l0,0
			c0,26.965,21.859,48.823,48.823,48.823h391.595C1353.945,3103.145,1353.981,3065.322,1372.209,3035.449z"/>
		<g>
			<path style="fill:#063E70;" d="M1348.07,2882.453c1.705-2.931-0.885-6.316-4.824-6.316H723.564
				c-48.57,0-87.944,32.491-87.944,72.574l0,0c0,40.081,39.374,72.574,87.944,72.574h619.854c3.957,0,6.553-3.412,4.832-6.352l0,0
				C1323.71,2972.983,1323.773,2924.216,1348.07,2882.453z"/>
			<path style="fill:#EEFBFF;" d="M1343.132,2891.753H927.359c-30.712,0-55.609,24.897-55.609,55.609v4.172
				c0,30.713,24.897,55.61,55.609,55.61h416.658C1325.39,2970.164,1325.184,2928.719,1343.132,2891.753z"/>
		</g>
		<path style="fill:#EEFBFF;" d="M593.911,2869.688h399.914c35.463,0,64.212-31.002,64.212-69.244l0,0
			c0-38.243-28.749-69.244-64.212-69.244H593.911l0,0c30.566,38.386,31.761,94.7,2.854,134.553L593.911,2869.688z"/>
		<path style="fill:#FFCB83;" d="M1052.769,2800.443L1052.769,2800.443c0-38.243-29.079-69.244-64.951-69.244H586.637
			c-1.872,0-3.383-1.628-3.365-3.623l0,0c0.018-1.968,1.52-3.553,3.365-3.553h636.418c39.589,0,71.682,34.214,71.682,76.419v0.001
			c0,42.205-32.093,76.419-71.682,76.419H586.639c-1.847,0-3.349-1.586-3.365-3.555l0,0c-0.017-1.994,1.495-3.62,3.365-3.62h401.179
			C1023.69,2869.688,1052.769,2838.686,1052.769,2800.443z"/>
		<g>
			<path style="fill:#FF4C16;" d="M1081.115,2949.904h-42.797c-9.203,0-16.664,2.854-16.664,6.376v0.571h59.461V2949.904z"/>
			<path style="fill:#F47458;" d="M1117.621,2965.893c0-8.83-11.178-15.988-24.965-15.988h-54.922
				c10.458,0,18.934,5.429,18.934,12.127l-0.259,171.376l30.346-22.039l30.93,22.039L1117.621,2965.893z"/>
		</g>
		<g>
			<path style="fill:#FF6E53;" d="M1703.043,3147.354H546.845c-35.904,0-65.01,29.105-65.01,65.008v54.682
				c0,35.903,29.106,65.01,65.01,65.01h1156.198l-0.605-0.63C1652.975,3279.94,1653.242,3198.51,1703.043,3147.354z"/>
			<path style="fill:#EEFBFF;" d="M1682.574,3174.693h-618.083c-35.904,0-65.01,29.105-65.01,65.01l0,0
				c0,35.904,29.106,65.009,65.01,65.009h618.071C1659.842,3264.458,1659.875,3214.916,1682.574,3174.693z"/>
		</g>
		<g>
			<path style="fill:#4054E7;" d="M1379.096,3240.041h-50.124c-10.779,0-19.519,8.737-19.519,19.517v1.747h69.643V3240.041z"/>
			<path style="fill:#6577FF;" d="M1331.021,3240.112c11.98-0.005,29.873,10.133,39.964,22.647l118.888,147.446l69.832-0.04
				l-113.07-140.23c-13.305-16.5-36.895-29.869-52.691-29.859L1331.021,3240.112z"/>
		</g>
		<g>
			<path style="fill:#063E70;" d="M284.77,3315.866l24.364-5.688c0,0,19.761,1.248,38.2-2.493c0,0,1.852,4.896,2.654,15.011
				c0.138,1.745-2.367,10.431-4.097,10.697c-6.269,0.965-17.307-0.127-36.887,0.322c0,0-30.827,3.643-47.323-1.802
				C245.184,3326.47,284.77,3315.866,284.77,3315.866z"/>
			<path style="fill:#031322;" d="M553.93,2917.095c1.354,14.142,13.224,19.128,24.288,28.076c7.427,6.007,6.15,22.234,0.473,32.313
				c-14.38,25.527-2.13,28.677,9.46,47.425c27.917,45.154-58.589,55.133-68.855,58.497c-10.267,3.363-17.228,7.438-23.3,6.765
				c-18.304-2.026-35.049-28.041-44.34-52.103c-9.291-24.063,13.267-25.332,14.419-39.151c1.151-13.82-25.248-16.789-17.419-42.891
				c8.469-28.237,20.419-52.172,36.295-60.756c26.268-14.202,58.199,0.65,65.458,12.061
				C552.572,2910.729,553.635,2914.009,553.93,2917.095z"/>
			<path style="fill:#FAE0B2;" d="M555.964,3226.224c2.273,5.661,14.791,25.689,14.791,25.689l-175.672,1.746l-2.739-36.038
				c48.231-0.389,95.907-21.716,140.346-36.974C533.817,3183.37,554.862,3223.479,555.964,3226.224z"/>
			<path style="fill:#C9EDF9;" d="M431.435,3087.996c0,0,9.432-66.587,24.603-73.504c15.172-6.916,97.338,2.668,109.636,10.179
				c12.297,7.511-8.186,85.712-11.329,107.591c-0.188,1.309-0.39,2.616-0.604,3.918c-5.188,31.578-2.187,63.892,8.95,93.77
				c-44.958,13.651-56.622,21.158-104.836,19.814l-17.999-105.32C439.855,3144.443,425.543,3093.479,431.435,3087.996z"/>
			<path style="fill:#F7A491;" d="M521.292,2970.668c0,0,3.779,36.661,7.017,45.653c3.237,8.993-8.675,27.285-28.108,32.349
				c-19.433,5.063-5.295-19.533-5.751-29.04c-0.456-9.505-2.338-54.498-2.338-54.498L521.292,2970.668z"/>
			<path style="fill:#F47458;" d="M521.748,2974.881c-2.417,2.751-5.341,5.24-8.883,7.327c-7.34,4.327-14.068,5.281-19.868,3.945
				c-0.479-11.333-0.885-21.021-0.885-21.021l29.18,5.536C521.292,2970.668,521.458,2972.276,521.748,2974.881z"/>
			<path style="fill:#F7A491;" d="M514.485,2903.706c0,0,11.472,3.03,18.22,14.222c6.747,11.191,10.491,43.557-13.569,57.737
				c-24.06,14.18-41.587-7.732-41.145-28.474S483.853,2898.944,514.485,2903.706z"/>
			<path style="fill:#F7A491;" d="M470.69,2938.503c0.264,5.388,3.015,9.623,6.145,9.463c3.13-0.16,5.454-4.657,5.189-10.044
				c-0.264-5.387-3.015-9.623-6.145-9.462C472.75,2928.62,470.426,2933.116,470.69,2938.503z"/>
			<path style="fill:#F7A491;" d="M532.044,2946.756c-1.898,5.327-0.529,10.689,3.06,11.977c3.589,1.287,8.038-1.988,9.937-7.316
				c1.899-5.327,0.529-10.689-3.06-11.977C538.392,2938.152,533.943,2941.429,532.044,2946.756z"/>
			<path style="fill:#65CEFE;" d="M565.674,3024.671c0,0-14.01,7.351-22.601,27.855c-8.592,20.506,20.667,125.147,26.906,131.852
				c6.239,6.704,23.498,7.752,26.443-8.636C599.367,3159.354,589.444,3029.846,565.674,3024.671z"/>
			<path style="fill:#EEFBFF;" d="M481.878,3010.661l24.156,145.069l-94.033,15.163l-29.849-135.704
				C382.152,3035.189,459.513,3003.866,481.878,3010.661z"/>
			<path style="fill:#EEFBFF;" d="M300.389,3015.137c8.985-3.537,18.783-4.436,28.26-2.583
				c17.599,3.439,45.572,10.571,56.799,22.636c16.944,18.208,32.624,138.664,32.624,138.664l-73.096-16.389L300.389,3015.137
				L300.389,3015.137z"/>
			<path style="fill:#E6A748;" d="M551.864,3263.293c-12.291-34.14-151.579-158.406-188.449-148.848l19.801,75.789
				c0,0,41.384,123.374,81.934,139.288c40.551,15.914,78.521-2.048,78.521-2.048S564.154,3297.432,551.864,3263.293z"/>
			<path style="fill:#F7A491;" d="M501.85,3063.919c-1.732,3.468,9.341,9.658,12.559,12.003c3.219,2.345,16.571-0.068,16.571-0.068
				S503.78,3060.058,501.85,3063.919z"/>
			<path style="fill:#F48C7F;" d="M382.85,3226.337c0,0-35.395,73.552-35.513,81.209c-0.17,11.033-51.175,8.007-40.096,3.287
				c2.548-1.086,10.575-5.15,11.19-5.682c3.293-2.838,32.67-94.177,32.67-94.177L382.85,3226.337z"/>
			<path style="fill:#E6A748;" d="M394.14,3138.344c-1.709-1.887-19.649-9.013-33.457,8.192
				c-13.808,17.205-40.284,151.123-40.284,151.123l32.546,3.187C352.945,3300.846,433.958,3182.266,394.14,3138.344z"/>
			<path style="fill:#FF6E53;" d="M288.852,3037.926l41.871,122.073c1.68,4.896,5.858,8.415,10.832,9.118
				c39.254,5.554,59.735,8.375,59.735,8.375s7.66,0.398,15.78,0.503l89.86-9.591c7.817-0.834,13.273-8.408,11.814-16.401
				l-21.873-119.859c-1.351-7.404-8.158-12.344-15.343-11.137l-86.451,14.531c-7.641-0.206-15.082-0.406-22.722-0.612
				l-68.013-15.229C294.061,3017.395,285.333,3027.667,288.852,3037.926z"/>
			<path style="fill:#F7A491;" d="M471.743,3097.303c0,0,24.115,4.469,32.353,4.222c8.238-0.248,18.917,2.354,18.917,2.354
				s26.918,63.299,30.781,70.358c11.529,21.079,43.494,18.594,42.964,1.013c-0.42-13.966-55.021-101.559-69.536-101.122
				c-14.515,0.438-59.958-9.039-61.32-3.266c-0.733,3.106,41.848,4.559,35.131,7.195c-4.173,1.638-37.501-2.107-37.382,1.814
				c0.118,3.923,30.106,4.294,33.339,7.338c3.232,3.044-31.917-3.726-31.716,2.933c0.101,3.353,30.961,0.933,34.341,6.02
				C501.022,3098.279,469.189,3090.704,471.743,3097.303z"/>
			<g>
				<path style="fill:#F7A491;" d="M309.114,3086.971c-1.891-0.817-4.093,0.248-4.558,2.255c-0.476,2.055-0.576,4.53,0.948,6.168
					c3.025,3.25,24.12,6.364,24.232,3.228C329.824,3096.209,315.668,3089.806,309.114,3086.971z"/>
				<path style="fill:#F7A491;" d="M305.014,3095.162c0,0-2.117,7.909-0.287,7.975c1.83,0.066,24.657,2.326,25.671-0.387
					C331.413,3100.038,307.951,3093.566,305.014,3095.162z"/>
				<path style="fill:#F7A491;" d="M304.027,3103.325c0,0-0.649,3.512,1.241,5.543c1.891,2.031,23.145,0.702,23.921-2.675
					C329.965,3102.817,304.775,3100.734,304.027,3103.325z"/>
				<path style="fill:#F7A491;" d="M307.271,3110.75c0,0-0.031,2.683,1.04,3.833c1.071,1.151,16.772-0.444,18.332-3.792
					C328.203,3107.445,309.097,3107.28,307.271,3110.75z"/>
			</g>
			<path style="fill:#F7A491;" d="M360.513,3296.408c0,0-7.495,27.124-15.025,45.063c-4.928,11.74-6.196,23.448-9.458,29.31
				c-8.248,14.819-21.735,15.411-32.446,6.511c-10.711-8.9,3.655-46.453,3.655-46.453l33.814-47.573L360.513,3296.408z"/>
			<path style="fill:#063E70;" d="M336.03,3370.781c2.898-5.207,4.236-15.03,7.951-25.389c-5.172,3.002-13.851,5.263-18.568,4.002
				c-17.303-4.623-18.173-18.556-18.173-18.556s-18.035,38.489-7.324,47.39C310.626,3387.129,327.782,3385.601,336.03,3370.781z"/>
			<polygon style="fill:#E74A60;" points="395.088,3035.539 422.774,3178.842 406.112,3177.84 401.29,3177.494 372.366,3034.933 			
				"/>
			<path style="fill:#FFCB83;" d="M491.537,3321.146c9.48,17.441,28.374,20.152,45.382,18.724
				c18.813-1.581,39.523-11.872,45.082-33.466c5.937-23.062-1.876-51.608-15.571-69.704c-70.1-92.627-70.645-101.757-98.549-114.061
				c-30.129-13.285-142.02,177.866-142.02,177.866l30.726,15.704c0,0,46.088-38.522,75.535-72.299
				c3.462-3.972,13.314-24.518,13.314-24.518S485.272,3309.616,491.537,3321.146z"/>
		</g>
		<g>
			<path style="fill:#FFCB83;" d="M492.572,2644.001c-29.628,4.479-38.915,43.167-14.563,60.844
				c4.374,3.175,7.369,7.902,8.601,13.165l4.238,18.107c1.168,4.99,5.975,8.246,11.042,7.48l11.224-1.697
				c5.067-0.766,8.696-5.297,8.337-10.409c-1.311-18.654-3.145-25.438,3.021-33.671
				C542.506,2673.738,522.206,2639.521,492.572,2644.001z"/>
			<g>
				<path style="fill:#EEFBFF;" d="M499.042,2729.452c-0.01,0.001-0.02,0.002-0.03,0.004c-1.492,0.208-2.87-0.832-3.078-2.323
					l-5.522-39.484l-9.248-7.923c-1.144-0.98-1.277-2.701-0.297-3.845c0.979-1.144,2.701-1.275,3.845-0.297l10.815,9.266
					l5.808,41.528C501.541,2727.858,500.517,2729.229,499.042,2729.452z"/>
			</g>
			<g>
				<path style="fill:#EEFBFF;" d="M512.78,2729.06c0.01-0.002,0.021-0.003,0.03-0.005c1.486-0.242,2.495-1.643,2.254-3.129
					l-6.398-39.353l6.493-10.302c0.803-1.274,0.42-2.958-0.853-3.761c-1.273-0.804-2.958-0.421-3.761,0.853l-7.592,12.049
					l6.728,41.389C509.922,2728.277,511.305,2729.282,512.78,2729.06z"/>
			</g>
			<path style="fill:#65CEFE;" d="M486.484,2717.563c0.038,0.149,0.09,0.296,0.125,0.447l4.239,18.107
				c1.168,4.99,5.974,8.246,11.042,7.48l11.224-1.697c5.067-0.766,8.696-5.297,8.337-10.409c-0.583-8.299-1.268-14.245-1.308-19.018
				L486.484,2717.563z"/>
		</g>
		<path style="fill:#FF6E53;" d="M486.992,2355.712l-11.739-16.977l-20.64,0.046c-2.351,0.006-3.688-2.688-2.262-4.556
			l12.518-16.411l-6.422-19.615c-0.731-2.234,1.416-4.338,3.635-3.559l19.476,6.834l16.671-12.169
			c1.899-1.386,4.563,0.007,4.508,2.356l-0.481,20.635l16.725,12.095c1.905,1.377,1.403,4.342-0.849,5.016l-19.773,5.919
			l-6.335,19.643C491.303,2357.207,488.329,2357.646,486.992,2355.712z"/>
		<path style="fill:#65CEFE;" d="M1683.333,2434.512l-8.624-12.471l-15.162,0.033c-1.728,0.004-2.708-1.975-1.661-3.347
			l9.195-12.056l-4.717-14.408c-0.537-1.642,1.041-3.187,2.67-2.614l14.307,5.02l12.246-8.939c1.395-1.018,3.352,0.006,3.312,1.732
			l-0.354,15.157l12.287,8.885c1.398,1.012,1.03,3.188-0.624,3.685l-14.524,4.347l-4.653,14.431
			C1686.499,2435.609,1684.313,2435.932,1683.333,2434.512z"/>
		<path style="fill:#FFCB83;" d="M1316.98,1975.846l-8.624-12.471l-15.162,0.033c-1.728,0.004-2.708-1.975-1.661-3.347l9.195-12.056
			l-4.717-14.409c-0.537-1.641,1.041-3.186,2.67-2.613l14.307,5.02l12.246-8.939c1.395-1.018,3.352,0.006,3.312,1.732l-0.354,15.157
			l12.287,8.885c1.398,1.012,1.03,3.188-0.624,3.685l-14.524,4.347l-4.653,14.431
			C1320.146,1976.943,1317.961,1977.266,1316.98,1975.846z"/>
		<path style="fill:#65CEFE;" d="M802.415,1950.803l-8.624-12.471l-15.162,0.033c-1.728,0.005-2.708-1.974-1.661-3.347l9.195-12.055
			l-4.717-14.409c-0.537-1.642,1.041-3.187,2.67-2.614l14.307,5.021l12.246-8.939c1.395-1.019,3.352,0.005,3.312,1.731
			l-0.355,15.157l12.287,8.885c1.398,1.012,1.03,3.189-0.624,3.685l-14.524,4.348l-4.653,14.43
			C805.581,1951.9,803.396,1952.223,802.415,1950.803z"/>
		<polygon style="fill:#FF6E53;" points="1332.341,2261.715 1313.277,2258.51 1302.108,2274.755 1280.993,2269.648 
			1274.433,2290.619 1250.299,2285.898 1241.877,2304.464 1217.914,2303.719 1218.197,2294.649 1236.113,2295.206 1245,2275.615 
			1268.199,2280.153 1274.869,2258.831 1298.17,2264.466 1309.078,2248.602 1326.747,2251.572 1331.73,2239.657 1340.103,2243.158 
					"/>
		<polygon style="fill:#C9EDF9;" points="414.758,2053.354 433.655,2057.43 438.02,2076.655 459.526,2079.724 457.861,2101.634 
			482.029,2106.179 482.983,2126.543 505.521,2134.717 508.614,2126.187 491.763,2120.074 490.756,2098.586 467.524,2094.218 
			469.218,2071.94 445.486,2068.554 441.222,2049.779 423.708,2046.002 423.487,2033.088 414.414,2033.242 		"/>
		<polygon style="fill:#FF6E53;" points="791.144,2224.314 777.184,2228.599 767.809,2206.898 746.626,2210.645 736.955,2195.553 
			729.315,2200.448 742.248,2220.633 762.324,2217.082 772.077,2239.657 793.083,2233.21 		"/>
		<polygon style="fill:#65CEFE;" points="1579.007,2160.328 1567.298,2151.603 1579.256,2131.212 1563.71,2116.343 
			1570.163,2099.62 1561.697,2096.354 1553.065,2118.719 1567.799,2132.81 1555.359,2154.022 1572.979,2167.152 		"/>
		<path style="fill:#FF6E53;" d="M380.091,2492.154l-20.894,12.713l21.672,97.359c1.873,8.412,11.458,12.494,18.82,8.015l0,0
			c4.638-2.821,6.943-8.3,5.718-13.589l-5.296-22.858l21.924-13.338l18.128,15.171c4.133,3.458,10.009,3.9,14.614,1.101l0.397-0.242
			c7.37-4.482,8.146-14.883,1.522-20.409L380.091,2492.154z M394.224,2550.816l-4.003-17.886l14.069,11.762L394.224,2550.816z"/>
		<path style="fill:#FFCB83;" d="M1693.721,2641.789c1.073-2.757,0.701-12.633,14.424-22.128c5.641-3.86,10.267-7.146,11.518-11.654
			c2.159-7.776-6.025-11.51-14.178-11.472c-4.217,0.02-7.664-3.36-7.798-7.576l0,0c-0.136-4.283,3.188-7.871,7.468-8.08
			c4.674-0.229,10.182,0.225,15.961,1.83c17.501,4.857,22.77,16.744,19.715,27.748c-2.797,10.075-10.869,14.974-17.453,19.145
			c-11.082,7.039-11.076,14.885-12.023,17.082L1693.721,2641.789z M1685.195,2659.126c1.951-7.026,8.255-10.702,15.148-8.789
			c7.159,1.987,10.4,8.313,8.583,15.376c-1.913,6.896-8.122,10.742-15.281,8.754
			C1686.619,2672.518,1683.281,2666.021,1685.195,2659.126z"/>
		<g>
			<path style="fill:#FFCB83;" d="M1008.828,2121.236c-27.252,0-40.865,33.528-21.369,52.734c3.502,3.449,5.552,8.108,5.944,13.009
				l1.35,16.86c0.372,4.646,4.252,8.227,8.913,8.227h10.323c4.662,0,8.541-3.58,8.912-8.227c1.357-16.954,0.631-23.305,7.295-29.869
				C1049.688,2154.767,1036.085,2121.236,1008.828,2121.236z"/>
			<g>
				<path style="fill:#EEFBFF;" d="M1003.028,2198.958c-0.01,0-0.018,0-0.027,0c-1.37-0.015-2.468-1.138-2.453-2.507l0.403-36.258
					l-7.239-8.382c-0.896-1.037-0.781-2.603,0.256-3.498c1.036-0.896,2.602-0.779,3.497,0.256l8.466,9.803l-0.424,38.134
					C1005.492,2197.866,1004.386,2198.958,1003.028,2198.958z"/>
			</g>
			<g>
				<path style="fill:#EEFBFF;" d="M1015.437,2200.474c0.009,0,0.018,0,0.027,0c1.369-0.016,2.467-1.138,2.452-2.507l-0.403-36.258
					l7.24-8.383c0.895-1.036,0.78-2.603-0.256-3.497c-1.035-0.896-2.603-0.78-3.498,0.256l-8.466,9.803l0.424,38.134
					C1012.972,2199.382,1014.079,2200.474,1015.437,2200.474z"/>
			</g>
			<path style="fill:#65CEFE;" d="M993.352,2186.56c0.013,0.141,0.04,0.278,0.051,0.42l1.35,16.86
				c0.372,4.646,4.252,8.227,8.913,8.227h10.323c4.662,0,8.541-3.58,8.912-8.227c0.604-7.542,0.797-12.982,1.41-17.28H993.352z"/>
		</g>
		<polygon style="fill:#FFCB83;" points="1061.265,2075.076 1037.71,2115.018 1077.651,2085.318 		"/>
		<polygon style="fill:#FFCB83;" points="965.492,2064.786 989.575,2105.801 985.479,2058.69 		"/>
		<polygon style="fill:#FFCB83;" points="923.615,2123.506 961.924,2138.573 922.818,2140.917 		"/>
		<polygon style="fill:#FFCB83;" points="1041.807,2177.489 1057.169,2196.948 1068.434,2183.635 		"/>
		<polygon style="fill:#FFCB83;" points="1057.169,2141.646 1091.989,2127.308 1093.013,2142.669 		"/>
		<polygon style="fill:#FFCB83;" points="966.02,2180.563 933.248,2195.924 943.49,2208.214 		"/>
		<path style="fill:#65CEFE;" d="M624.433,2344.602c5.357,0.435,15.834,2.607,25.461,5.358c11.78,3.367,18.675,6.571,23.832,12.019
			c5.048,4.868,7.69,11.926,5.481,19.653c-2.172,7.601-8.633,13.427-19.274,14.222l-0.072,0.254
			c8.994,5.447,14.114,14.858,10.964,25.879c-2.208,7.727-7.493,12.793-14.044,15.58c-7.618,3.166-18.802,2.984-35.776-1.867
			c-9.5-2.715-16.413-5.376-20.539-7.24L624.433,2344.602z M634.22,2382.75l6.334,1.811c10.134,2.896,16.775,0.272,18.585-6.062
			c1.846-6.46-2.116-11.292-10.857-13.79c-4.18-1.195-6.659-1.629-8.378-1.847L634.22,2382.75z M623.395,2420.625
			c1.828,0.796,4.108,1.448,7.401,2.389c8.741,2.498,17.409,1.414,19.979-7.58c2.462-8.613-4.288-14.242-13.915-16.994l-6.587-1.883
			L623.395,2420.625z"/>
		<path style="fill:#FFCB83;" d="M1504.242,2415.57c1.085,4.75-1.824,9.527-6.563,10.668c-4.422,1.064-10.045,1.9-16.508,2.119
			c-33.648,1.135-51.686-19.221-52.62-46.949c-1.12-33.215,21.94-52.498,51.401-53.492c5.846-0.197,10.992,0.236,15.154,0.961
			c5.008,0.871,8.258,5.766,7.163,10.729l-0.069,0.311c-1.026,4.654-5.53,7.726-10.224,6.887c-3.079-0.549-6.554-0.854-10.401-0.725
			c-17.474,0.589-30.693,11.589-29.963,33.251c0.658,19.496,12.626,31.382,32.266,30.72c3.268-0.109,6.698-0.576,9.85-1.244
			C1498.483,2407.796,1503.158,2410.831,1504.242,2415.57L1504.242,2415.57z"/>
		<path style="fill:#65CEFE;" d="M353.62,2887.853c-2.347-6.973,1.569-14.805,8.556-17.111c7.27-2.399,13.897,1.165,16.661,8.409
			c2.627,7.291-0.311,14.529-7.883,17.257C363.266,2899.176,356.149,2895.369,353.62,2887.853z M351.243,2866.752l-22.658-54.126
			c-1.875-4.479,0.384-9.614,4.952-11.259l5.518-1.987c4.56-1.643,9.569,0.862,10.988,5.498l17.185,56.117L351.243,2866.752z"/>
		<g>
			<g>
				<path style="fill:#F48C7F;" d="M1389.589,2884.396c0,0,58.399,25.448,63.554,26.578c3.229,0.708,40.348-37.76,60.582-52.785
					c0.939-0.698,4.531-5.814,5.539-6.32c12.041-6.048-8.314,28.792-8.314,28.792s-43.058,54.754-52.799,59.446
					c-12.235,5.892-72.699-24.003-72.336-25.728L1389.589,2884.396z"/>
				<path style="fill:#E74A60;" d="M1380.326,2829.735c2.514-17.207,14.459-53.842,3.439-68.49
					c-15.495-20.598-48.235-19.706-63.705,0.086c-7.09,9.072-10.927,20.195-14.666,31.085c-2.413,7.03-4.852,14.101-8.254,20.726
					c-3.041,5.919-6.52,13.319-12.305,16.923c-25.711,16.012-54.504,26.328-56.357,62.404
					c-2.198,42.782,44.669,96.306,102.219,70.397c22.031-9.918,50.89-41.994,60.313-64.182c4.247-10.003,2.215-8.953-0.13-24.196
					C1388.78,2860.841,1378.303,2843.595,1380.326,2829.735z"/>
				<path style="fill:#4054E7;" d="M1349.018,2855.327l78.18,43.017l-18.436,27.993c0,0-58.863-22.435-70.765-25.645
					C1326.097,2897.481,1335.47,2854.156,1349.018,2855.327z"/>
				<path style="fill:#F7A491;" d="M1347.676,2818.005c0,0-2.033,29.773-3.551,38.119c-1.568,8.624-2.523,44.533,15.414,48.918
					c17.936,4.386,11.202-44.239,11.498-52.958c0.297-8.718,2.049-37.041,2.049-37.041L1347.676,2818.005z"/>
				<path style="fill:#F47458;" d="M1347.423,2821.575c1.348,2.005,2.966,3.931,4.888,5.744c6.607,6.233,13.407,8.257,19.605,7.445
					c0.561-9.871,1.17-19.722,1.17-19.722l-25.41,2.962C1347.676,2818.005,1347.584,2819.361,1347.423,2821.575z"/>
				<path style="fill:#F7A491;" d="M1366.211,2761.021c0,0-10.905,0.354-19.246,8.967c-8.342,8.613-18.326,36.763,0.34,54.372
					c18.665,17.608,37.121,2.478,40.974-16.146C1392.131,2789.594,1394.648,2763.056,1366.211,2761.021z"/>
				<path style="fill:#E74A60;" d="M1376.443,2761.899c0,0-11.38,29.36-38.253,26.877c-12.175-1.124-14.932,15.501-14.932,15.501
					s9.96-39.472,22.459-45.337S1376.443,2761.899,1376.443,2761.899z"/>
				<path style="fill:#F7A491;" d="M1341.652,2795.881c0.611,5.149-1.715,9.66-5.195,10.072c-3.481,0.414-6.799-3.427-7.41-8.576
					s1.715-9.658,5.195-10.072C1337.725,2786.892,1341.041,2790.731,1341.652,2795.881z"/>
				<path style="fill:#E74A60;" d="M1541.401,2805.529l-66.185,135.233c-1.58,3.229-1.091,6.974,1.077,8.243l48.349,28.315
					l60.438-119.842c0,0-26.328-39.4-36.209-54.175C1547.043,2800.572,1543.278,2801.693,1541.401,2805.529z"/>
				<path style="fill:#FFCB83;" d="M1483.712,2936.321l57.59-117.672c1.877-3.836,5.642-4.96,7.469-2.227
					c8.023,12.001,20.151,30.147,28.865,43.188l-54.245,107.563l-38.602-22.607
					C1482.621,2943.296,1482.131,2939.551,1483.712,2936.321z"/>
				<path style="fill:#F48C7F;" d="M1515.17,2849.286c0.682-1.185,3.816-3.759,5.138-4.11c2.796-0.743,6.171-0.634,6.726,1.165
					c0.807,2.615-7.445,5.515-7.445,5.515l-4.492,6.51C1515.096,2858.365,1513.001,2853.053,1515.17,2849.286z"/>
				<path style="fill:#F7A491;" d="M1345.406,2848.094c0,0,20.38,16.834,26.229,22.682c5.805,5.804,15.961,12.888,15.961,12.888
					l-16.473-22.788l-10.438-9.741L1345.406,2848.094z"/>
				<path style="fill:#F48C7F;" d="M1598.35,3117.859c-3.162-2.635-6.051-10.143-7.205-13.437
					c-6.85-35.445-39.23-131.314-74.502-131.314c-30.727,0-125.633,74.424-170.014,117.439c-12.817,12.422-11.952,1.882-4.098,4.78
					c4.693,1.729,36.377,54.436,41.449,54.668c15.496,0.708,29.826-9.668,42.762-16.889c19.721-11.007,33.432-23.564,44.891-40.671
					c29.025-43.332,39.905-68.834,48.65-85.416c0,0,8.247,34.108,12.291,42.332c9.133,18.575,36.434,64.332,47.111,82.163
					l41.879-1.139C1621.564,3130.377,1602.445,3121.272,1598.35,3117.859z"/>
				<path style="fill:#F7A491;" d="M1519.373,2992.909c0,0-140.654,65.547-149.53,88.079s-2.048,55.99,18.436,62.816
					c20.483,6.828,147.481-101.735,147.481-101.735s16.387,30.043,39.602,50.526c12.376,10.92,33.297,19.826,45.235,27.824
					c10.457,7.006,12.802,13.826,12.802,13.826l29.36,1.365c0,0-4.949-1.694-13.827-13.655
					C1618.951,3081.56,1549.401,2987.641,1519.373,2992.909z"/>
				<path style="fill:#063E70;" d="M1465.092,2984.716c0,0,45.178,48.705,54.055,112.888c0,0-70.783,30.497-105.605,48.933
					s-73.74-0.683-86.031-21.166c-12.29-20.483,0-78.18,0-78.18l72.376-11.266L1465.092,2984.716z"/>
				<path style="fill:#063E70;" d="M1572.289,3119.339c-3.6-1.372-4.859,16.839-5.451,20.9c-0.666,4.572,1.516,7.666,2.068,8.047
					c1.492,1.029,59.494,2.176,70.586-0.799c0.749-0.201,2.317-1.144,2.594-1.384c8.146-7.106-29.541-25.955-37.137-24.375
					C1598.193,3123.133,1588.48,3125.51,1572.289,3119.339z"/>
				<path style="fill:#6577FF;" d="M1344.238,2856.012c0,0-11.033-0.104-22.833,25.316c-14.502,31.241,6.19,150.455,4.688,167.466
					c0,0,5.114,5.879,34.886,10.179c26.382,3.811,41.296-15.025,41.296-15.025s-6.714-46.031,3.457-89.334
					c5.512-23.463,8.416-46.215-13.357-67.309S1344.238,2856.012,1344.238,2856.012z"/>
				<path style="fill:#064C91;" d="M1620.981,3120.467c-3.6-1.373-6.7,16.17-6.435,20.456c0.287,4.61,1.458,7.964,2.01,8.345
					c1.492,1.03,59.554,1.877,70.645-1.097c0.75-0.202,2.317-1.145,2.595-1.386c8.146-7.105-33.765-24.888-41.361-23.307
					C1641.679,3124.883,1637.173,3126.637,1620.981,3120.467z"/>
				<path style="fill:#FF6E53;" d="M1582.16,2799.926l-109.701,159.735c-2.527,3.681-1.93,8.163,1.249,9.347l74.189,27.653
					l87.745-125.782l-43.778-72.541C1589.891,2795.067,1584.94,2795.878,1582.16,2799.926z"/>
				<path style="fill:#F7A491;" d="M1556.083,2921.034c-1.408-2.72-12.804,3.324-12.804,3.324s-10.14,1.76-10.857,1.383
					c-0.812-0.428,6.813-1.063,6.813-1.063s12.455-4.257,12.316-5.655c-0.571-5.748-8.373,1.406-14.486,1.668
					c-4.669,0.199-9.738-0.006-14.235-0.643c-1.792-1.008,2.774-3.27,2.774-3.27s5.993-2.693,5.035-4.267
					c-2.326-3.826-16.341,3.445-19.288,6.145c-1.978,1.81-4.443,5.321-7.884,7.267c-14.969,8.467-32.906,22.994-54.079,33.188
					c-7.013-5.89-74.659-66.607-76.358-68.082l-36.949,29.101c0.05,0.036,105.993,80.724,111.881,80.532
					c7.4-0.242,51.518-46.807,63.459-57.903c1.806-1.678,13.148-2.942,16.266-2.507c6.932,0.969,19.926-4.473,19.926-4.473
					c4.004-4.231-14.757,0.044-12.979-1.058c0.786-0.487,5.372-0.954,9.936-1.607c4.649-0.666,8.859-3.325,9.426-4.599
					c1.107-2.485-10.451,1.083-10.451,1.083l-9.636,0.594l9.22-1.879C1543.127,2928.313,1557.457,2923.687,1556.083,2921.034z"/>
				<path style="fill:#4054E7;" d="M1362.639,2872.564c-11.945-12.225-34.914-10.446-41.615,7.002
					c-1.863,4.853-1.783,18.777,0.342,23.897c8.497,20.482,58.037,53.94,58.037,53.94l27.311-37.212L1362.639,2872.564z"/>
			</g>
		</g>
		<g>
			<path style="fill:#F7A491;" d="M871.729,2516.655c0-1.569,1.932-11.688,1.932-11.688s-4.503-14.352-4.962-14.384
				c-9.268-0.666-16.261,5.635-14.693,14.104l0.087,0.28c4.801,15.314,17.71,26.69,33.507,29.524
				c3.603,0.646,7.414,1.323,11.319,2.007c-1.838-6.15-2.969-12.433-2.908-18.889
				C882.468,2517.503,871.729,2517.235,871.729,2516.655z"/>
			<path style="fill:#4054E7;" d="M1028.449,2453.337c-0.256-0.769-81.479,52.063-81.479,52.063s-34.667,0.34-60.277,0.12
				c-0.068,7.734,1.184,15.261,3.22,22.63c25.304,4.791,54.138,9.846,60.699,9.341c12.221-0.94,73.513-31.521,73.513-31.521
				S1028.64,2453.909,1028.449,2453.337z"/>
			<path style="fill:#6577FF;" d="M1029.359,2650.605c-0.168-1.326-17.328-60.178-19.117-112.888
				c-1.389-40.875,11.265-77.515,17.752-84.21c2.395-2.502,24.694-7.853,24.694-7.853l-8.118,13.477
				c-8.253,15.577-10.491,29.372-14.072,46.95c-10.387,50.975,36.281,152.97,33.912,153.627
				C1061.762,2660.444,1030.021,2655.825,1029.359,2650.605z"/>
			<polygon style="fill:#C9EDF9;" points="851.354,2444.882 837.099,2454.19 879.724,2525.924 893.115,2467.675 			"/>
			<polygon style="fill:#C9EDF9;" points="860.167,2433.601 878.079,2493.141 892.433,2467.419 			"/>
			<polygon style="fill:#C9EDF9;" points="978.484,2426.729 992.262,2476.722 890.726,2467.505 			"/>
			<path style="fill:#F7A491;" d="M920.569,2638.243c0,0-43.151,52.717-43.269,60.375c-0.17,11.032-51.175,8.005-40.096,3.286
				c2.549-1.086,10.575-5.15,11.19-5.681c3.294-2.838,37.291-69.385,37.291-69.385L920.569,2638.243z"/>
			<path style="fill:#064C91;" d="M814.732,2706.938l32.804-10.205c0,0,11.322,5.766,29.76,2.023c0,0,4.812,7.728,5.613,17.842
				c0.138,1.745,1,6.918-0.731,7.184c-6.268,0.964-23.632,0.556-43.212,1.005c0,0-26.381,0.309-42.877-5.136
				C779.593,2714.206,814.732,2706.938,814.732,2706.938z"/>
			<path style="fill:#E74A60;" d="M1129.502,2650.833c0,0-38.824-8.87-75.106-34.821c-41.982-30.03-89.218-61.266-107.88-58.721
				c-15.021,2.049-102.418,122.219-102.418,122.219l42.333,18.436l76.472-78.521c0,0,78.118,80.533,103.784,86.031
				C1125.14,2717.977,1143.817,2674.873,1129.502,2650.833z"/>
			<path style="fill:#FFCB83;" d="M835.1,2454.202l58.873,124.724c0.267,0.566,0.78,0.979,1.39,1.121l39.32,10.934l-50.248-123.558
				l-46.817-16.032C835.904,2450.802,834.326,2452.563,835.1,2454.202z"/>
			<path style="fill:#031322;" d="M1035.457,2336.369c0,0,10.877-14.829,23.018-0.006c0,0,7.225-5.353,13.67,1.733
				c0,0,13.52-6.012,19.596,14.571c0,0,7.06-2.281,9.105,6.195c2.045,8.477-1.596,14.762-1.596,14.762s4.45,2.531,3.605,10.67
				c-0.717,6.92-6.148,8.648-6.148,8.648s-0.064,11.518-4.545,15.552c-4.481,4.035-11.375,3.245-11.375,3.245
				s-0.996,6.365-6.797,6.547c-5.801,0.181-13.59-4.379-19.691-1.109c-6.104,3.27-23.08,2.787-23.08,2.787
				s-19.752-5.953-16.579-25.769c0,0-10.95-7.625-3.702-19.359c0,0-8.389-15.854,2.785-27.254
				C1024.896,2336.183,1035.457,2336.369,1035.457,2336.369z"/>
			<path style="fill:#F7A491;" d="M975.533,2805.825c0,0,2.39,64.865,3.871,75.851c1.474,10.935-27.527,43.877-23.821,32.419
				c0.852-2.636,3.049-11.36,3.052-12.173c0.019-4.349-10.755-78.344-10.755-78.344L975.533,2805.825z"/>
			<path style="fill:#064C91;" d="M944.641,2934.358l13.815-31.455c0,0,11.779-4.763,21.05-21.135c0,0,8.988,1.437,17.148,7.467
				c1.408,1.04,5.878,3.783,4.943,5.265c-3.385,5.363-15.083,18.201-27.587,33.275c0,0-17.073,20.113-32.003,28.994
				C927.077,2965.649,944.641,2934.358,944.641,2934.358z"/>
			<path style="fill:#FF6E53;" d="M947.198,2873.421c3.028-3.079-30.694-169.019-14.338-185.034
				c16.355-16.017,125.633-39.603,125.633-39.603l14.338-50.526c0,0,45.691,13.396,64.183,40.968
				c10.112,15.078-0.226,49.461-2.048,53.257c-15.607,32.499-54.168,34.14-82.221,33.852c-25.808-0.266-71.635-0.622-71.635-0.622
				l-0.114,146.686c0,0-11.266,2.73-20.142,2.39C948.713,2874.32,947.198,2873.421,947.198,2873.421z"/>
			<path style="fill:#FFFFFF;" d="M1048.496,2449.205l29.594-10.634c0,0,0.893,0.048,1.164,0.014
				c3.176-0.402,38.096,113.855,49.491,157.078c11.394,43.222-3.53,35.024-3.53,35.024s-26.106,16.269-56.48,17.414
				c-31.584,1.191-25.264-36.87-25.264-36.87s-16.629-79.468-14.68-106.515C1030.739,2477.669,1048.496,2449.205,1048.496,2449.205z
				"/>
			<path style="fill:#F7A491;" d="M1048.969,2425.97l-0.115,14.564l-0.02,2.585c0,0-2.012,24.938,5.131,28.79
				c7.144,3.853,24.108-33.333,24.108-33.333l-7.681-42.305L1048.969,2425.97z"/>
			<path style="fill:#F47458;" d="M1072.877,2410.026c-3.563,15.259-15.313,25.851-24.02,30.485l0.114-14.54l21.423-29.699
				L1072.877,2410.026z"/>
			<path style="fill:#F7A491;" d="M1049.568,2353.305c-13.872-2.891-26.922,7.735-27.213,21.694
				c-0.127,6.067,0.025,13.657,0.914,21.864c2.139,19.739,14.763,37.612,23.706,36.479c8.942-1.134,32.042-17.016,29.392-45.087
				C1074.73,2370.925,1064.126,2356.338,1049.568,2353.305z"/>
			<path style="fill:#F7A491;" d="M1070.059,2391.302c0.551,4.345,3.877,7.501,7.43,7.051c3.552-0.45,5.985-4.337,5.435-8.682
				c-0.551-4.344-3.877-7.501-7.429-7.051C1071.941,2383.071,1069.508,2386.958,1070.059,2391.302z"/>
			<path style="fill:#031322;" d="M1009.584,2348.417c-8.311,8.488-10.138,20.018-4.082,25.751c6.055,5.733,17.699,3.5,26.009-4.989
				c8.31-8.488,10.137-20.018,4.082-25.751C1029.538,2337.695,1017.893,2339.929,1009.584,2348.417z"/>
			<path style="fill:#031322;" d="M1034.494,2351.355c0.403,3.181,4.57,5.271,9.307,4.672c4.736-0.601,8.25-3.666,7.847-6.846
				c-0.403-3.181-4.569-5.271-9.306-4.671C1037.604,2345.111,1034.092,2348.176,1034.494,2351.355z"/>
			<path style="fill:#031322;" d="M1012.077,2379.063c0.519,4.089,4.217,6.988,8.261,6.476c4.043-0.513,6.9-4.243,6.382-8.331
				c-0.519-4.089-4.216-6.988-8.26-6.476C1014.417,2371.244,1011.559,2374.975,1012.077,2379.063z"/>
			<path style="fill:#6577FF;" d="M1078.072,2438.575c0,0,28.965-4.702,38.7-0.559c6.19,2.635,14.07,55.156,14.07,55.156
				s0.319,53.121,3.939,68.101c12.274,50.779,29.417,95.245,27.493,97.753c-12.596,10.357-65.298,19.956-69.303,15.021
				C1048.752,2619.561,1078.072,2438.575,1078.072,2438.575z"/>
			<path style="fill:#F7A491;" d="M1126.43,2492.426c0,0-29.009,89.66-41.699,99.061c-12.69,9.401-69.766-78.576-69.766-78.576
				s-25.264-14.339-27.06-14.489c-7.165-0.598,14.94-4.288,14.94-4.288l2.732-22.873c0,0,1.082,0.166,7.681,7.596
				c8.924,10.047,16.673,25.626,20.314,28.251l38.236,29.019l19.459-62.134L1126.43,2492.426z"/>
			<polygon style="fill:#E6A748;" points="884.435,2467.423 896.444,2466.253 947.907,2594.327 934.68,2590.976 			"/>
			<path style="fill:#FFCB83;" d="M998.887,2436.213l30.972,150.79c0.512,2.49-1.345,4.841-3.887,4.919l-78.064,2.41
				l-51.465-128.074l97.107-33.098C995.886,2432.363,998.391,2433.796,998.887,2436.213z"/>
			<path style="fill:#65CEFE;" d="M1030.327,2501.644l-9.9,21.679c0,0,48.648,80.057,63.67,75.619
				c15.021-4.438,43.356-91.152,47.795-115.05s-4.779-43.698-17.069-46.771c-12.291-3.072-21.85,17.753-25.605,26.629
				c-3.755,8.876-17.41,72.376-17.41,72.376L1030.327,2501.644z"/>
			<g>
				<path style="fill:#F7A491;" d="M857.369,2502.839c0,0-1.823-3.204-2.409-5.158c-0.585-1.954,11.391-8.749,16.13-5.651
					C875.829,2495.126,863.171,2499.842,857.369,2502.839z"/>
			</g>
			<g>
				<path style="fill:#F7A491;" d="M857.868,2510.672c0,0-3.006-3.156-3.591-5.11c-0.585-1.955,15.351-9.974,20.09-6.877
					C879.106,2501.782,863.67,2507.675,857.868,2510.672z"/>
			</g>
			<g>
				<path style="fill:#F7A491;" d="M863.33,2516.135c0,0-3.005-3.157-3.59-5.111c-0.585-1.955,11.391-8.749,16.13-5.651
					C880.608,2508.47,869.132,2513.138,863.33,2516.135z"/>
			</g>
			<path style="fill:#F7A491;" d="M1008.137,2480.137h-2.487c-1.181,0-2.352-0.125-3.506-0.378
				c-4.594-1.003-17.157-3.495-18.132-0.988c-1.195,3.072,18.094,6.657,18.094,6.657s-21.167-2.731-21.167,0.854
				s21.508,5.462,21.508,5.462s-18.776-0.683-19.118,1.366c-0.341,2.048,23.044,7.852,23.044,7.852s-18.948-4.097-20.826-1.707
				c-1.878,2.39,29.702,13.912,29.702,13.912L1008.137,2480.137z"/>
			<path style="fill:#F7A491;" d="M863.33,2516.135c0,0,10.354-5.843,13.085-4.021c2.731,1.82-8.876,10.583-8.876,10.583
				l1.393,3.201C868.933,2525.897,861.511,2520.155,863.33,2516.135z"/>
		</g>
	</g>
</g>
</svg>
